HIERARCHY
ROOT Hips
{
 OFFSET 0.000000 0.000000 0.000000
 CHANNELS 6 Xposition Yposition Zposition Yrotation Xrotation Zrotation
 JOINT Chest
 {
  OFFSET 0.000000 9.303000 0.001900
  CHANNELS 3 Yrotation Xrotation Zrotation
  JOINT Chest2
  {
   OFFSET 0.000000 9.301100 -0.003900
   CHANNELS 3 Yrotation Xrotation Zrotation
   JOINT Chest3
   {
    OFFSET 0.000000 9.262800 0.000000
    CHANNELS 3 Yrotation Xrotation Zrotation
    JOINT Chest4
    {
     OFFSET 0.000000 9.253300 0.000000
     CHANNELS 3 Yrotation Xrotation Zrotation
     JOINT Neck
     {
      OFFSET 0.000000 14.010300 0.000000
      CHANNELS 3 Yrotation Xrotation Zrotation
      JOINT Head
      {
       OFFSET 0.000000 8.657600 -0.008300
       CHANNELS 3 Yrotation Xrotation Zrotation
       End Site
       {
        OFFSET 0.000000 16.540200 -0.004400
       }
      }
     }
     JOINT RightCollar
     {
      OFFSET -2.834100 9.267700 0.000000
      CHANNELS 3 Yrotation Xrotation Zrotation
      JOINT RightShoulder
      {
       OFFSET -13.135200 0.000000 0.000000
       CHANNELS 3 Yrotation Xrotation Zrotation
       JOINT RightElbow
       {
        OFFSET 0.000000 -28.893500 0.000000
        CHANNELS 3 Yrotation Xrotation Zrotation
        JOINT RightWrist
        {
         OFFSET 0.000000 -23.344000 0.000000
         CHANNELS 3 Yrotation Xrotation Zrotation
         End Site
         {
          OFFSET 0.000000 -17.223000 0.000000
         }
        }
       }
      }
     }
     JOINT LeftCollar
     {
      OFFSET 2.834100 9.267700 0.000000
      CHANNELS 3 Yrotation Xrotation Zrotation
      JOINT LeftShoulder
      {
       OFFSET 13.135200 0.000000 0.000000
       CHANNELS 3 Yrotation Xrotation Zrotation
       JOINT LeftElbow
       {
        OFFSET 0.000000 -28.893500 0.000000
        CHANNELS 3 Yrotation Xrotation Zrotation
        JOINT LeftWrist
        {
         OFFSET 0.000000 -23.344000 0.000000
         CHANNELS 3 Yrotation Xrotation Zrotation
         End Site
         {
          OFFSET 0.000000 -17.223000 0.000000
         }
        }
       }
      }
     }
    }
   }
  }
 }
 JOINT RightHip
 {
  OFFSET -7.547200 -0.009500 -0.001000
  CHANNELS 3 Yrotation Xrotation Zrotation
  JOINT RightKnee
  {
   OFFSET 0.000000 -39.762800 0.000900
   CHANNELS 3 Yrotation Xrotation Zrotation
   JOINT RightAnkle
   {
    OFFSET 0.000000 -38.588200 0.001600
    CHANNELS 3 Yrotation Xrotation Zrotation
    JOINT RightToe
    {
     OFFSET 0.000000 -4.693300 10.419700
     CHANNELS 3 Yrotation Xrotation Zrotation
     End Site
     {
      OFFSET 0.000000 -1.379900 5.669300
     }
    }
   }
  }
 }
 JOINT LeftHip
 {
  OFFSET 7.547200 -0.009500 -0.001000
  CHANNELS 3 Yrotation Xrotation Zrotation
  JOINT LeftKnee
  {
   OFFSET 0.000000 -39.762800 0.000900
   CHANNELS 3 Yrotation Xrotation Zrotation
   JOINT LeftAnkle
   {
    OFFSET 0.000000 -38.588200 0.001600
    CHANNELS 3 Yrotation Xrotation Zrotation
    JOINT LeftToe
    {
     OFFSET 0.000000 -4.693300 10.419700
     CHANNELS 3 Yrotation Xrotation Zrotation
     End Site
     {
      OFFSET 0.000000 -1.379900 5.669300
     }
    }
   }
  }
 }
}
MOTION
Frames: 13
Frame Time: 0.008333
24.827831 45.382046 -9.250987 163.688971 -26.901341 0.498876 6.314776 11.228302 2.620243 0.435392 0.875244 0.143386 0.743211 1.490880 0.248327 5.312440 10.212583 2.127882 2.577460 17.229243 0.477575 2.606749 -7.590047 -0.082511 12.319259 0.196247 -10.714012 8.005964 -46.366369 -40.315185 -143.915756 -68.466214 153.078261 -21.626235 -18.699719 -17.390278 -17.290952 -6.851223 -1.486524 14.841198 -44.596977 23.799639 98.706304 -48.554258 -120.896655 18.849382 -9.188752 -1.039923 -8.562049 -61.747698 3.353264 -135.094950 85.942997 -133.771771 -9.417609 -8.477391 -3.469323 -0.146903 -0.198916 -0.016795 -11.442636 -58.824693 27.170400 98.818157 78.125054 96.344571 -11.492248 -7.224083 -2.991002 0.447082 0.190931 0.158400
24.828101 45.374276 -9.247388 163.627595 -27.028082 0.494971 6.296678 11.254690 2.632412 0.434761 0.876326 0.145140 0.742269 1.492696 0.251262 5.304468 10.219225 2.146950 2.485530 17.258952 0.687276 2.461660 -7.560697 0.159175 12.267717 0.214204 -10.700472 7.764442 -46.439446 -40.151204 -145.910339 -68.199506 154.970846 -21.545608 -18.644470 -17.246193 -17.258924 -6.772090 -1.549668 14.781725 -44.471968 23.863459 100.057557 -49.436381 -121.728590 18.509447 -9.314443 -0.751986 -8.389479 -61.630499 3.285635 -134.494665 85.924347 -133.118777 -9.478260 -8.437140 -3.469260 -0.157687 -0.204976 -0.006010 -11.424916 -58.701904 27.200363 98.873168 78.080743 96.410561 -11.484513 -7.224547 -3.004378 0.418595 0.186804 0.155212
24.835569 45.367186 -9.242703 163.550593 -27.168207 0.460443 6.296795 11.290620 2.685005 0.434169 0.877637 0.146972 0.741221 1.494809 0.254377 5.295846 10.227121 2.167040 2.379405 17.267401 0.908257 2.299029 -7.554090 0.415802 12.211702 0.244473 -10.680857 7.521246 -46.507062 -39.969267 -147.768475 -67.926151 156.740056 -21.466273 -18.583918 -17.095402 -17.249286 -6.668262 -1.623560 14.728086 -44.338616 23.951436 101.375116 -50.305863 -122.553711 18.148705 -9.445569 -0.435288 -8.335253 -61.488364 3.334147 -134.074132 85.921145 -132.684415 -9.389090 -8.392349 -3.478294 -0.179632 -0.189114 -0.020220 -11.445828 -58.559890 27.289340 98.870341 77.942697 96.453172 -11.596018 -7.237278 -3.057058 0.465076 0.183205 0.177787
24.843249 45.357431 -9.231585 163.472654 -27.271890 0.422851 6.293646 11.290621 2.738235 0.433456 0.879013 0.148922 0.739940 1.496999 0.257655 5.285760 10.235453 2.188234 2.259991 17.254586 1.138055 2.120493 -7.569982 0.684620 12.156744 0.291231 -10.651465 7.277018 -46.572786 -39.781368 -149.429208 -67.645748 158.338818 -21.393830 -18.516394 -16.936538 -17.265652 -6.546258 -1.711731 14.688355 -44.192079 24.066488 102.637344 -51.151873 -123.358581 17.769928 -9.566494 -0.108944 -8.293394 -61.386125 3.387536 -133.821363 85.927370 -132.448479 -9.107140 -8.330600 -3.486536 -0.141662 -0.181444 -0.009219 -11.483082 -58.463044 27.398487 98.919428 77.846225 96.542228 -11.652029 -7.240812 -3.090263 0.467052 0.178236 0.177885
24.850017 45.348699 -9.221257 163.402667 -27.384267 0.399358 6.276519 11.301744 2.775779 0.432591 0.880490 0.151191 0.738472 1.499446 0.261475 5.274188 10.244531 2.212967 2.125549 17.221719 1.372209 1.925309 -7.606833 0.961289 12.107493 0.359322 -10.613938 7.034579 -46.643408 -39.600961 -150.866009 -67.362391 159.740347 -21.340088 -18.440814 -16.764432 -17.271534 -6.415447 -1.800319 14.646880 -44.020120 24.182776 103.825927 -51.970206 -124.132145 17.380280 -9.659708 0.215414 -8.223527 -61.274862 3.423608 -133.308174 85.922675 -131.933151 -9.012033 -8.287070 -3.487355 -0.128404 -0.169389 -0.002500 -11.479553 -58.362733 27.460678 98.956866 77.775900 96.622722 -11.689059 -7.240490 -3.119864 0.474079 0.171456 0.178163
24.858258 45.341516 -9.211504 163.338457 -27.508290 0.377772 6.250516 11.325014 2.812039 0.431554 0.882266 0.153940 0.736706 1.502412 0.266187 5.260431 10.255503 2.243373 1.975425 17.171157 1.607349 1.713511 -7.662023 1.242520 12.064691 0.442584 -10.570667 6.797087 -46.717218 -39.438788 -152.066250 -67.079728 160.932204 -21.307999 -18.363461 -16.579878 -17.283077 -6.273177 -1.896224 14.618712 -43.829460 24.304693 104.929700 -52.758868 -124.872489 16.979451 -9.719149 0.535920 -8.148746 -61.147680 3.483426 -132.358061 85.909360 -130.954600 -9.208273 -8.260107 -3.470663 -0.162853 -0.157707 -0.009771 -11.435954 -58.270491 27.489361 99.021223 77.723218 96.754387 -11.714427 -7.217658 -3.159314 0.473376 0.141980 0.187886
24.865137 45.333530 -9.197926 163.243436 -27.608972 0.384257 6.245592 11.326079 2.835564 0.430294 0.884587 0.157231 0.734589 1.506230 0.271790 5.243410 10.269822 2.279354 1.810120 17.105068 1.842785 1.485803 -7.733013 1.527541 12.026769 0.529612 -10.521618 6.566121 -46.786355 -39.299495 -153.024917 -66.798502 161.913918 -21.287120 -18.295870 -16.391965 -17.295727 -6.129303 -2.001599 14.597743 -43.614994 24.432173 105.944470 -53.506984 -125.571808 16.567692 -9.731094 0.838844 -8.031936 -61.049024 3.523888 -131.481229 85.910805 -130.091144 -9.287530 -8.207155 -3.436678 -0.175638 -0.145393 -0.012923 -11.370596 -58.174869 27.518200 99.033754 77.704055 96.795835 -11.697668 -7.228903 -3.176069 0.452186 0.150191 0.184912
24.878737 45.327857 -9.184088 163.154969 -27.726624 0.359404 6.237176 11.340053 2.894577 0.428856 0.887575 0.161086 0.732130 1.511120 0.278322 5.222868 10.288053 2.320866 1.630095 17.024895 2.078753 1.242741 -7.818038 1.816482 11.992721 0.619437 -10.470432 6.340201 -46.853875 -39.178496 -153.748848 -66.521891 162.692283 -21.271439 -18.249392 -16.211091 -17.313600 -5.988194 -2.117933 14.576640 -43.375648 24.565754 106.857256 -54.214714 -126.208194 16.149444 -9.686295 1.107719 -7.972095 -60.926114 3.590836 -131.007704 85.921674 -129.637448 -9.188856 -8.161373 -3.429432 -0.141153 -0.132916 -0.000576 -11.348965 -58.057075 27.592742 99.046491 77.690163 96.838637 -11.652359 -7.238374 -3.189303 0.411722 0.158573 0.175398
24.891878 45.324773 -9.172411 163.072127 -27.863536 0.348597 6.216315 11.374537 2.943520 0.427230 0.891386 0.165568 0.729307 1.517477 0.285960 5.198580 10.311294 2.368805 1.435816 16.930854 2.314360 0.984944 -7.916740 2.108525 11.963800 0.714603 -10.420758 6.120829 -46.930137 -39.072889 -154.275057 -66.256792 163.295280 -21.266592 -18.224182 -16.040278 -17.344889 -5.846825 -2.244677 14.554345 -43.118736 24.704909 107.648820 -54.901245 -126.761680 15.737897 -9.597711 1.335450 -7.889995 -60.781923 3.653987 -130.132313 85.916815 -128.758097 -9.362379 -8.133147 -3.407637 -0.152929 -0.121719 -0.000818 -11.273125 -57.932099 27.611148 99.038429 77.655033 96.887148 -11.670940 -7.239032 -3.216740 0.413472 0.153928 0.176378
24.904359 45.324646 -9.163703 162.988600 -28.024906 0.355056 6.190030 11.433488 2.983180 0.425345 0.895996 0.170740 0.726066 1.525160 0.294790 5.170305 10.339326 2.423840 1.226824 16.824171 2.549262 0.711847 -8.027670 2.403621 11.937153 0.813273 -10.371171 5.911349 -47.016659 -38.980206 -154.638906 -66.007023 163.752128 -21.264027 -18.209467 -15.878792 -17.394570 -5.700151 -2.384072 14.525111 -42.851530 24.855469 108.315746 -55.580860 -127.221396 15.350485 -9.470720 1.512121 -7.779432 -60.613045 3.707265 -128.960330 85.898698 -127.564127 -9.751199 -8.114148 -3.373713 -0.203597 -0.115699 -0.013934 -11.068029 -57.803107 27.518465 98.959800 77.625897 96.918673 -11.717222 -7.248060 -3.252586 0.433157 0.153220 0.186534
24.919351 45.324358 -9.151122 162.905457 -28.171587 0.344474 6.164303 11.474070 3.044670 0.423136 0.900916 0.176555 0.722314 1.533247 0.304683 5.138485 10.368900 2.485306 1.003127 16.707666 2.783866 0.423311 -8.147631 2.702354 11.907976 0.914384 -10.321638 5.707809 -47.113021 -38.886196 -154.860338 -65.773837 164.085197 -21.249578 -18.189776 -15.721125 -17.458105 -5.550716 -2.537897 14.470173 -42.567119 25.030168 108.845025 -56.258538 -127.566289 14.985353 -9.316217 1.633948 -7.706084 -60.457832 3.779100 -128.094887 85.895846 -126.702915 -9.900468 -8.074877 -3.350268 -0.214179 -0.113910 -0.018959 -10.954375 -57.668240 27.507913 98.885270 77.599774 96.917879 -11.736482 -7.254920 -3.284722 0.435204 0.158321 0.189789
24.932313 45.325025 -9.138450 162.825945 -28.319716 0.345907 6.128939 11.518503 3.097019 0.420539 0.905685 0.182814 0.717871 1.541135 0.315302 5.103088 10.397682 2.551450 0.766038 16.582682 3.019061 0.120402 -8.274981 3.005691 11.881698 1.017066 -10.272067 5.502969 -47.222805 -38.778538 -154.965621 -65.565184 164.318811 -21.228816 -18.155450 -15.564304 -17.523610 -5.407621 -2.701147 14.376733 -42.257524 25.235048 109.213756 -56.932265 -127.769634 14.632460 -9.142468 1.703069 -7.611639 -60.302386 3.829956 -127.159461 85.891519 -125.764988 -10.081443 -8.036672 -3.324611 -0.235255 -0.111729 -0.029807 -10.859608 -57.525361 27.498790 98.840799 77.571323 96.921681 -11.741808 -7.257981 -3.311698 0.416582 0.159408 0.188960
24.946202 45.325719 -9.123248 162.701747 -28.458939 0.357704 6.129113 11.556077 3.161278 0.417557 0.910205 0.189411 0.712752 1.548618 0.326443 5.064193 10.425102 2.621237 0.517434 16.450686 3.255986 -0.195401 -8.408078 3.314815 11.865659 1.116926 -10.220126 5.293743 -47.343668 -38.654641 -154.973751 -65.393298 164.472512 -21.208202 -18.101033 -15.410685 -17.585270 -5.275136 -2.869511 14.247757 -41.923521 25.463779 109.407692 -57.605591 -127.815206 14.293397 -8.955606 1.723235 -7.498055 -60.154293 3.907083 -126.164742 85.887226 -124.765060 -10.200700 -7.984341 -3.291695 -0.291785 -0.116138 -0.058177 -10.745353 -57.389996 27.513944 98.786538 77.545947 96.911685 -11.775982 -7.265469 -3.342476 0.428330 0.167214 0.199938
